<?xml version="1.0" encoding="UTF-8"?>
<!DOCTYPE svg PUBLIC "-//W3C//DTD SVG 1.1//EN" "http://www.w3.org/Graphics/SVG/1.1/DTD/svg11.dtd">
<!-- Creator: CorelDRAW 2018 (64-Bit) -->
<svg xmlns="http://www.w3.org/2000/svg" xml:space="preserve" width="74.0295mm" height="74.0295mm" version="1.1" style="shape-rendering:geometricPrecision; text-rendering:geometricPrecision; image-rendering:optimizeQuality; fill-rule:evenodd; clip-rule:evenodd"
viewBox="0 0 7402.96 7402.96"
 xmlns:xlink="http://www.w3.org/1999/xlink">
 <defs>
  <style type="text/css">
   <![CDATA[
    .str0 {stroke:#323066;stroke-width:20;stroke-miterlimit:22.9256}
    .fil0 {fill:none}
    .fil1 {fill:#323066;fill-rule:nonzero}
   ]]>
  </style>
 </defs>
 <g id="Layer_x0020_1">
  <metadata id="CorelCorpID_0Corel-Layer"/>
  <g id="_2178342044480">
   <rect class="fil0 str0" x="10" y="10" width="7382.96" height="7382.96" rx="592.67" ry="592.67"/>
   <g>
    <path class="fil1" d="M4224.41 4976.25c425.99,-737.84 846.35,-1465.88 1270.5,-2200.54 102.88,221.11 202.4,433.27 299.13,646.77 6.8,14.96 -2.6,42.09 -12.34,59.06 -223.15,388.44 -447.4,776.29 -671.4,1164.2 -57.5,99.58 -114.11,199.66 -173.26,298.2 -8.72,14.48 -29.34,30.77 -44.6,30.92 -218.34,1.99 -436.7,1.39 -668.03,1.39z"/>
    <path class="fil1" d="M1909.69 2775.73c425.01,736.17 844.76,1463.2 1268.59,2197.31 -23.4,1.38 -39.36,3.09 -55.31,3.15 -196.5,0.17 -393,-0.89 -589.48,0.98 -37.42,0.4 -56.18,-12.8 -74.51,-44.65 -277.87,-483.74 -557.45,-966.5 -835.47,-1450.16 -10.35,-17.98 -18.86,-47.24 -11.44,-63.66 96.08,-212.22 195.22,-423.08 297.62,-642.97z"/>
    <path class="fil1" d="M5124.1 2426.64c-83.46,-0.1 -166.77,-0.18 -249.74,-0.98 -4.03,-0.08 -7.03,0.7 -10.61,0.98l-63.33 0 -887.32 1581.61c-60.01,103.88 -119.82,207.86 -179.81,311.74 -8.89,15.37 -19.09,30 -31.32,49.14l-1090.15 -1942.49 -97.13 0c-14.6,-2.27 -30.34,-3.3 -48.43,-2.54 -31.47,1.33 -63.03,1.86 -94.58,2.54l-484.12 0c5.04,13.1 6.22,18.11 8.66,22.34 480.97,833.35 961.84,1666.73 1444.29,2499.2 9.05,15.59 36.65,28.69 55.73,28.91 203.33,2.04 406.68,0.63 609.99,1.99 31.12,0.2 48.04,-9.85 63.63,-36.82 475.28,-824.94 951.44,-1649.33 1427.32,-2473.87 6.88,-11.91 11.96,-24.85 20,-41.75l-393.08 0z"/>
    <path class="fil1" d="M2278.52 4922.15c-134.58,-233.19 -269.16,-466.36 -403.74,-699.58l0.05 0.08 -1019.9 -1796 -326.43 0c-125.76,-0.28 -252.68,0 -382.73,0 9.47,18.56 14.89,30.6 21.43,41.91 475.13,823.02 950.53,1645.93 1424.93,2469.36 16.65,28.93 34.63,39.38 67.79,39.13 199.95,-1.53 399.91,-0.65 599.83,-0.85 13.91,-0.06 27.81,-2.12 47.2,-3.76 -11.96,-21.18 -20.07,-35.81 -28.43,-50.29z"/>
    <path class="fil1" d="M6902.03 2426.64l-357.64 0 -1131.09 1996.86 0.25 -0.28c-27.48,47.57 -55.03,95.16 -82.5,142.74 -76.86,133.09 -153.42,266.36 -234.2,406.65 15.26,1.96 21.55,3.47 27.9,3.47 210.1,0.16 420.23,1.19 630.3,-1.53 19.12,-0.2 45.38,-19.92 55.78,-37.83 476.44,-822.24 951.49,-1645.32 1426.57,-2468.35 6.87,-11.89 11.86,-24.88 19.79,-41.73 -120.2,0 -238.13,-0.15 -355.16,0z"/>
   </g>
  </g>
 </g>
</svg>
