<?xml version="1.0" encoding="UTF-8"?>
<svg version="1.1" xmlns="http://www.w3.org/2000/svg" width="1148" height="560">
<path d="M0 0 C8.04039365 -0.39570176 16.07666717 -0.69675743 24.12441826 -0.88080692 C27.86283152 -0.96920285 31.59454734 -1.08873589 35.32910156 -1.2824707 C59.2670739 -2.4912264 59.2670739 -2.4912264 65.24142456 1.49584961 C68.80236325 5.35489433 70.56859218 9.81461547 72.20214844 14.74502563 C73.40349898 18.14041246 75.19283263 21.10598178 77.01953125 24.1953125 C78.28596335 26.50405262 79.55025985 28.81396538 80.8125 31.125 C82.20001796 33.65463922 83.58992696 36.18295941 84.98046875 38.7109375 C85.32251343 39.33303101 85.66455811 39.95512451 86.01696777 40.59606934 C89.17786184 46.33774845 92.39156606 52.0488667 95.625 57.75 C100.08446412 65.61284794 104.52353792 73.48650299 108.9375 81.375 C109.51830322 82.41285645 110.09910645 83.45071289 110.69750977 84.52001953 C113.05575842 88.73502578 115.41311342 92.95053155 117.77050781 97.16601562 C130.07718044 119.16988419 142.46759768 141.12383223 155 163 C155.66 163 156.32 163 157 163 C157.58265625 161.94425781 158.1653125 160.88851562 158.765625 159.80078125 C163.36847018 151.47886005 168.01828455 143.1868827 172.75 134.9375 C178.98350556 124.06466103 185.10606984 113.1311049 191.21777344 102.18945312 C194.1413344 96.95748046 197.07093521 91.72889272 200 86.5 C201.16669641 84.41668332 202.33336306 82.33334998 203.5 80.25 C205.83333333 76.08333333 208.16666667 71.91666667 210.5 67.75 C211.0775 66.71866943 211.655 65.68733887 212.25 64.62475586 C213.41638912 62.54208087 214.58305568 60.45956122 215.75 58.37719727 C218.67321128 53.16003183 221.59150704 47.94023052 224.5 42.71484375 C225.37978516 41.13703125 225.37978516 41.13703125 226.27734375 39.52734375 C227.35477265 37.59481255 228.43056401 35.66136644 229.50390625 33.7265625 C230.59574414 31.77001089 231.72535754 29.83428534 232.88232422 27.91552734 C234.73794172 24.70207597 236.06450031 21.37811604 237.43408203 17.93212891 C240.35934715 11.18369394 243.29648702 4.8262169 249 0 C258.35329249 -3.5795142 268.89724224 -2.38714636 278.70214844 -1.64794922 C282.34623222 -1.39982396 285.99439237 -1.29231108 289.64453125 -1.171875 C296.77289379 -0.91642851 303.88483279 -0.50854884 311 0 C310.28516077 3.96834319 309.20006489 6.77207283 307.1484375 10.26171875 C306.55216553 11.28475098 305.95589355 12.3077832 305.34155273 13.36181641 C304.69259033 14.45929199 304.04362793 15.55676758 303.375 16.6875 C302.69595025 17.8477084 302.01765913 19.00836111 301.34008789 20.16943359 C299.93127575 22.58227311 298.5192137 24.99316635 297.10498047 27.40283203 C293.84912155 32.95760332 290.6472476 38.54350941 287.4375 44.125 C282.67351987 52.3913431 277.87996272 60.63972892 273.0625 68.875 C267.64041301 78.14563931 262.29675988 87.45936699 256.97976685 96.79046631 C251.80621213 105.86778636 246.56857846 114.90571533 241.2890625 123.921875 C236.80833854 131.5857377 232.39493248 139.28678835 228 147 C222.49532482 156.66083662 216.93248366 166.28535102 211.31323242 175.88012695 C205.88863739 185.15738648 200.55798379 194.48740631 195.24023438 203.82617188 C194.28020508 205.51129883 194.28020508 205.51129883 193.30078125 207.23046875 C192.45253784 208.72163208 192.45253784 208.72163208 191.5871582 210.24291992 C191.063396 211.15275635 190.53963379 212.06259277 190 213 C189.47817139 213.92337158 188.95634277 214.84674316 188.41870117 215.7980957 C187 218 187 218 185 219 C183.17860652 219.11637184 181.35303577 219.16965308 179.52807617 219.19287109 C178.38316208 219.20893402 177.23824799 219.22499695 176.05863953 219.24154663 C170.8202795 219.28590947 165.58200712 219.327501 160.34350586 219.35009766 C157.57786957 219.36343269 154.81297192 219.39127554 152.04760742 219.43212891 C148.06691468 219.49093476 144.08658105 219.50875882 140.10546875 219.5234375 C138.25057076 219.55744156 138.25057076 219.55744156 136.35820007 219.59213257 C127.78705513 219.57097119 127.78705513 219.57097119 123.81738281 216.69116211 C123.21764648 215.80307861 122.61791016 214.91499512 122 214 C121.37460327 213.08963989 121.37460327 213.08963989 120.73657227 212.16088867 C120.43291748 211.5857251 120.1292627 211.01056152 119.81640625 210.41796875 C119.45393799 209.74636719 119.09146973 209.07476562 118.71801758 208.3828125 C118.33669678 207.65835938 117.95537598 206.93390625 117.5625 206.1875 C116.68474794 204.56507497 115.80439972 202.94405262 114.921875 201.32421875 C114.45201172 200.46103027 113.98214844 199.5978418 113.49804688 198.70849609 C110.85201641 193.92442472 108.07930585 189.21491817 105.3125 184.5 C100.3676441 176.05771122 95.44771111 167.60195952 90.5625 159.125 C89.94028564 158.04541016 89.31807129 156.96582031 88.67700195 155.85351562 C87.41488483 153.6631748 86.15292215 151.47274498 84.89111328 149.28222656 C81.76319852 143.85340058 78.63141552 138.42680719 75.5 133 C74.24998121 130.83334417 72.99998122 128.6666775 71.75 126.5 C71.13125 125.4275 70.5125 124.355 69.875 123.25 C64.25 113.5 64.25 113.5 62.37475586 110.24951172 C61.12564482 108.08442929 59.87645871 105.91939018 58.62719727 103.75439453 C55.48797691 98.31384294 52.35009437 92.87252784 49.21484375 87.4296875 C43.19252629 76.97793728 37.15321004 66.53706147 31.0625 56.125 C23.93099092 43.92923351 16.91575582 31.66807014 9.93457031 19.38574219 C8.54763124 16.95842378 7.15187186 14.53782625 5.74511719 12.12207031 C5.3741391 11.48185944 5.00316101 10.84164856 4.62094116 10.18203735 C3.90295175 8.94364886 3.18158524 7.70721064 2.45645142 6.47299194 C0 2.22464564 0 2.22464564 0 0 Z " fill="#312F65" transform="translate(394,0)"/>
<path d="M0 0 C3.67225393 0.17512665 7.34648773 0.25179345 11.02172852 0.33721924 C18.2107571 0.518617 25.38994031 0.80794361 32.57250977 1.16729736 C31.20314323 5.41988567 29.64336516 9.09185354 27.40454102 12.96417236 C26.76637451 14.07421631 26.12820801 15.18426025 25.47070312 16.32794189 C24.77557459 17.52445332 24.08034068 18.72090353 23.38500977 19.91729736 C22.66259498 21.16945564 21.94067908 22.42190188 21.21923828 23.67462158 C19.73423328 26.25109448 18.24609967 28.82571869 16.75512695 31.39874268 C14.73290333 34.88867692 12.7180326 38.38280362 10.70532227 41.87823486 C7.61838209 47.23786118 4.52586671 52.59424238 1.43139648 57.94952393 C-1.69073628 63.35400382 -4.80890228 68.76077149 -7.92749023 74.16729736 C-9.17747145 76.33397487 -10.42747144 78.50064154 -11.67749023 80.66729736 C-12.60561523 82.27604736 -12.60561523 82.27604736 -13.55249023 83.91729736 C-15.42749023 87.16729736 -17.30249023 90.41729736 -19.17749023 93.66729736 C-19.7963208 94.7399585 -20.41515137 95.81261963 -21.05273438 96.91778564 C-22.30184542 99.08286807 -23.55103153 101.24790719 -24.80029297 103.41290283 C-27.93951333 108.85345442 -31.07739586 114.29476952 -34.21264648 119.73760986 C-40.82971915 131.22178557 -47.47383 142.6892663 -54.16040039 154.13311768 C-58.41732038 161.42352626 -62.64737017 168.72909094 -66.86499023 176.04229736 C-67.48035645 177.10730469 -68.09572266 178.17231201 -68.72973633 179.26959229 C-71.67185098 184.36596055 -74.6031182 189.46784112 -77.50056458 194.58972168 C-78.85400626 196.98050393 -80.21338086 199.36788702 -81.57327271 201.75500488 C-82.52717136 203.43520073 -83.47244801 205.12028235 -84.41748047 206.80548096 C-85.00086182 207.82851318 -85.58424316 208.85154541 -86.18530273 209.90557861 C-86.69206543 210.80316895 -87.19882812 211.70075928 -87.72094727 212.62554932 C-88.56568604 213.8837146 -88.56568604 213.8837146 -89.42749023 215.16729736 C-90.04309814 216.09074951 -90.65870605 217.01420166 -91.29296875 217.96563721 C-96.40232743 221.55440553 -101.73962769 220.77968637 -107.82202148 220.65557861 C-109.77575935 220.64496651 -109.77575935 220.64496651 -111.76896667 220.63414001 C-115.22012908 220.61511249 -118.67022762 220.56605175 -122.12097168 220.51062012 C-125.64682628 220.45933385 -129.17285397 220.43660619 -132.69897461 220.41143799 C-139.60891492 220.35792634 -146.51815141 220.27266709 -153.42749023 220.16729736 C-152.49596732 218.28325577 -151.56196264 216.40044114 -150.62695312 214.51812744 C-150.10710342 213.46950027 -149.58725372 212.42087311 -149.051651 211.34046936 C-146.51998166 206.39427043 -143.70088711 201.63095994 -140.86499023 196.85479736 C-136.19148548 188.91342763 -131.57086273 180.94800398 -127.05249023 172.91729736 C-122.23394863 164.35502855 -117.37388809 155.81740658 -112.48999023 147.29229736 C-107.37487307 138.36296126 -102.31104377 129.40699074 -97.30249023 120.41729736 C-92.73158664 112.21326097 -88.06154245 104.07606957 -83.30249023 95.97979736 C-78.31121823 87.48508956 -73.50718897 78.90999744 -68.82324219 70.24249268 C-64.50597981 62.26620523 -60.02128948 54.39350113 -55.50170898 46.53057861 C-51.73118593 39.96824338 -48.0205463 33.37214351 -44.31835938 26.77105713 C-43.29663016 24.95641389 -42.24001208 23.16109888 -41.15454102 21.3838501 C-39.74758463 18.76345847 -38.840105 16.5095195 -37.9152832 13.71832275 C-31.36536248 -3.60870939 -15.75542813 -0.8309249 0 0 Z " fill="#312F65" transform="translate(821.427490234375,-1.16729736328125)"/>
<path d="M0 0 C7.83857862 -0.56025389 15.6723685 -0.9843615 23.52601814 -1.24349213 C27.17613219 -1.36803611 30.81244266 -1.53596344 34.45458984 -1.81054688 C57.79837411 -3.52394429 57.79837411 -3.52394429 64.62243652 2.19946289 C69.21978617 7.89282069 72.10120445 14.28432074 74.7958374 21.0456543 C76.3469198 24.85114835 78.29617298 28.3096778 80.375 31.84375 C81.58568605 34.06121709 82.79406326 36.27994649 84 38.5 C89.43351512 48.44129168 95.02795226 58.27339336 100.77685547 68.03637695 C105.84061158 76.66173261 110.69876075 85.3941969 115.53759766 94.1472168 C120.73037673 103.53561573 126.02740342 112.8595742 131.37207031 122.16210938 C133.50943425 125.88807194 135.63787751 129.61910051 137.76657104 133.35002136 C145.83884796 147.49727164 153.95655427 161.61770294 162.10595703 175.72070312 C164.08141976 179.14096806 166.05474772 182.56245635 168.02734375 185.984375 C168.69913413 187.14957869 169.37092772 188.31478053 170.04272461 189.47998047 C171.30022438 191.66119437 172.55756235 193.84250157 173.81469727 196.02392578 C174.67985962 197.52415283 174.67985962 197.52415283 175.5625 199.0546875 C176.12195313 200.02631836 176.68140625 200.99794922 177.2578125 201.99902344 C178.4911778 204.12353665 179.73725904 206.24069131 180.9921875 208.35253906 C181.63414062 209.4350293 182.27609375 210.51751953 182.9375 211.6328125 C183.52402344 212.6139502 184.11054688 213.59508789 184.71484375 214.60595703 C186 217 186 217 186 219 C178.37656384 219.09272514 170.75318623 219.16377754 163.12931442 219.20724869 C159.58909928 219.22811412 156.04927026 219.25641126 152.50927734 219.30175781 C148.43843909 219.35357738 144.36800573 219.37295369 140.296875 219.390625 C138.39201324 219.42159271 138.39201324 219.42159271 136.44866943 219.45318604 C134.67728607 219.45363922 134.67728607 219.45363922 132.87011719 219.45410156 C131.31124786 219.46742523 131.31124786 219.46742523 129.72088623 219.48101807 C126.28710298 218.87396888 125.17386969 217.66405431 123 215 C121.89449593 213.31488988 120.84965797 211.5890271 119.85546875 209.8359375 C119.26894531 208.80984375 118.68242187 207.78375 118.078125 206.7265625 C117.45421875 205.62054688 116.8303125 204.51453125 116.1875 203.375 C115.52281732 202.2079447 114.85744001 201.04128477 114.19140625 199.875 C112.80899197 197.4530191 111.42957485 195.02936846 110.05224609 192.60449219 C106.89605861 187.05360299 103.69574991 181.52817099 100.5 176 C99.24979302 173.83345276 97.99979367 171.66678569 96.75 169.5 C96.13125 168.4275 95.5125 167.355 94.875 166.25 C44.25 78.5 44.25 78.5 42.37475586 75.24951172 C41.12564482 73.08442929 39.87645871 70.91939018 38.62719727 68.75439453 C35.48797691 63.31384294 32.35009437 57.87252784 29.21484375 52.4296875 C22.36527208 40.54208142 15.49108041 28.66958832 8.56616211 16.82568359 C7.50960843 15.01826762 6.45440725 13.21005999 5.40087891 11.40087891 C4.51291295 9.87904949 3.61995406 8.36011341 2.72021484 6.84521484 C0 2.21858574 0 2.21858574 0 0 Z " fill="#312F65" transform="translate(245,0)"/>
<path d="M0 0 C0.66 0 1.32 0 2 0 C6.68479066 9.90611967 11.35408148 19.81937484 16.00341797 29.7421875 C17.21228731 32.32210119 18.42489044 34.9000952 19.64111328 37.4765625 C20.93878057 40.22927092 22.22233098 42.9879683 23.5 45.75 C23.86665771 46.52053711 24.23331543 47.29107422 24.61108398 48.08496094 C25.09750366 49.1489209 25.09750366 49.1489209 25.59375 50.234375 C26.00657227 51.11947754 26.00657227 51.11947754 26.42773438 52.02246094 C27.52461667 55.81288184 27.43165177 58.94615105 25.93701172 62.59521484 C25.43959473 63.45840332 24.94217773 64.3215918 24.4296875 65.2109375 C23.87031494 66.19570068 23.31094238 67.18046387 22.73461914 68.19506836 C22.12094482 69.2444458 21.50727051 70.29382324 20.875 71.375 C20.24263428 72.4791626 19.61026855 73.5833252 18.95874023 74.72094727 C16.98636313 78.15568401 14.99561943 81.57872626 13 85 C11.82670855 87.02206906 10.65352676 89.04420175 9.48046875 91.06640625 C7.18235115 95.01897168 4.87510395 98.96605114 2.5625 102.91015625 C-1.1321331 109.21570419 -4.78852681 115.54294436 -8.4375 121.875 C-9.06003662 122.95515381 -9.68257324 124.03530762 -10.32397461 125.14819336 C-11.58576826 127.33796334 -12.84740534 129.52782355 -14.10888672 131.71777344 C-15.98948106 134.98174327 -17.87140546 138.24494189 -19.75390625 141.5078125 C-20.37305908 142.58111816 -20.99221191 143.65442383 -21.63012695 144.76025391 C-22.86871855 146.90624039 -24.10812855 149.05175475 -25.34838867 151.19677734 C-28.28905689 156.28536815 -31.22018535 161.37881866 -34.12011719 166.49072266 C-35.49477728 168.91265165 -36.87450139 171.33167728 -38.25463867 173.75048828 C-39.23006323 175.46495784 -40.1981195 177.18361281 -41.16601562 178.90234375 C-41.75576172 179.93488281 -42.34550781 180.96742188 -42.953125 182.03125 C-43.47036133 182.94455078 -43.98759766 183.85785156 -44.52050781 184.79882812 C-46 187 -46 187 -49 189 C-51.60063171 189.24050903 -51.60063171 189.24050903 -54.7565918 189.22705078 C-55.93758957 189.22689972 -57.11858734 189.22674866 -58.33537292 189.22659302 C-59.61044205 189.21627045 -60.88551117 189.20594788 -62.19921875 189.1953125 C-63.50454056 189.1924826 -64.80986237 189.18965271 -66.15473938 189.18673706 C-69.62195515 189.17910747 -73.08900288 189.15946493 -76.55615234 189.1373291 C-80.09535448 189.11685605 -83.63458382 189.10773223 -87.17382812 189.09765625 C-94.11595437 189.0762183 -101.05796911 189.04209056 -108 189 C-106.46855447 184.17008895 -104.43989217 180.06203586 -101.8125 175.75 C-100.90501595 174.23381085 -99.99885194 172.71683112 -99.09375 171.19921875 C-98.59875 170.37083496 -98.10375 169.54245117 -97.59375 168.68896484 C-94.6209771 163.67332135 -91.72060528 158.61581773 -88.8125 153.5625 C-88.17546143 152.45680664 -87.53842285 151.35111328 -86.88208008 150.21191406 C-85.57299343 147.93975918 -84.26415738 145.66745991 -82.95556641 143.39501953 C-79.80667946 137.9283002 -76.65316736 132.46425113 -73.5 127 C-72.2499765 124.83334689 -70.99997653 122.66668021 -69.75 120.5 C-66 114 -66 114 -62.25 107.5 C-61.63116943 106.42733887 -61.01233887 105.35467773 -60.37475586 104.24951172 C-59.12564482 102.08442929 -57.87645871 99.91939018 -56.62719727 97.75439453 C-53.48797691 92.31384294 -50.35009437 86.87252784 -47.21484375 81.4296875 C-40.63044837 70.00244934 -34.01669171 58.59358253 -27.35717773 47.20996094 C-22.0078148 38.04826068 -16.74609035 28.83723196 -11.50415039 19.61376953 C-9.67730424 16.40459034 -7.8408862 13.20114192 -6 10 C-5.42894531 8.99678711 -4.85789062 7.99357422 -4.26953125 6.95996094 C-3.47095703 5.58372559 -3.47095703 5.58372559 -2.65625 4.1796875 C-2.19025391 3.36999512 -1.72425781 2.56030273 -1.24414062 1.72607422 C-0.83357422 1.15646973 -0.42300781 0.58686523 0 0 Z " fill="#312F65" transform="translate(702,30)"/>
<path d="M0 0 C3.89025583 3.4149757 5.98223036 7.25032696 8.375 11.75 C12.33454021 19.03429936 16.42679103 26.22564497 20.625 33.375 C25.80871932 42.217062 30.92702675 51.09414076 36 60 C40.95348205 68.69418741 45.94369473 77.36503119 51 86 C56.05630923 94.63497557 61.04607122 103.30606319 66 112 C71.53319816 121.70955616 77.1188081 131.38653908 82.76367188 141.03173828 C87.83310889 149.69757875 92.85036514 158.39293284 97.85180664 167.09814453 C98.43696045 168.11505371 99.02211426 169.13196289 99.625 170.1796875 C100.46611328 171.64293457 100.46611328 171.64293457 101.32421875 173.13574219 C103.45786069 176.7825789 105.68199585 180.37072775 107.93359375 183.94580078 C109 186 109 186 109 189 C101.3939929 189.13919298 93.78811829 189.24571781 86.18112659 189.31087303 C82.64853148 189.3421499 79.11680942 189.38455065 75.5847168 189.45263672 C71.52123782 189.53047326 67.45867167 189.5594473 63.39453125 189.5859375 C62.1297847 189.61690521 60.86503815 189.64787292 59.56196594 189.67977905 C51.05365954 189.68304438 51.05365954 189.68304438 48.17384338 187.81617737 C46.86279297 186.30444336 46.86279297 186.30444336 45 183 C44.44094971 182.10692139 43.88189941 181.21384277 43.3059082 180.29370117 C42.80921631 179.38595947 42.31252441 178.47821777 41.80078125 177.54296875 C41.23689697 176.52211182 40.6730127 175.50125488 40.09204102 174.44946289 C39.21116821 172.83479126 39.21116821 172.83479126 38.3125 171.1875 C37.05867943 168.91850342 35.8034683 166.65027469 34.546875 164.3828125 C33.93779297 163.28227539 33.32871094 162.18173828 32.70117188 161.04785156 C30.5449584 157.18473891 28.32318187 153.36516648 26.0625 149.5625 C21.92632596 142.59259941 17.85878484 135.58498209 13.8125 128.5625 C13.17449463 127.45527588 12.53648926 126.34805176 11.87915039 125.20727539 C10.57110523 122.93662932 9.26324552 120.66587642 7.95556641 118.39501953 C5.4261357 114.00372573 2.89368857 109.6141765 0.36083984 105.22485352 C-0.87475525 103.08355522 -2.11010879 100.94211752 -3.34521484 98.80053711 C-6.27596039 93.71900872 -9.20830109 88.63841866 -12.14590454 83.56085205 C-13.53438027 81.16069899 -14.92200833 78.76005639 -16.30957031 76.359375 C-17.2901883 74.66358382 -18.27203309 72.96850224 -19.25390625 71.2734375 C-20.14335937 69.73429687 -20.14335937 69.73429687 -21.05078125 68.1640625 C-21.57325439 67.26123535 -22.09572754 66.3584082 -22.6340332 65.42822266 C-23.08480225 64.62690918 -23.53557129 63.8255957 -24 63 C-24.41145264 62.35724121 -24.82290527 61.71448242 -25.24682617 61.05224609 C-26.93920452 56.44085797 -24.75526674 52.02666389 -22.8296814 47.77436829 C-22.53526154 47.14370956 -22.24084167 46.51305084 -21.9375 45.86328125 C-21.62994781 45.18980148 -21.32239563 44.51632172 -21.00552368 43.82243347 C-20.01076191 41.64912344 -19.00571048 39.48076227 -18 37.3125 C-17.31510772 35.82313948 -16.63070164 34.33355528 -15.94677734 32.84375 C-13.97563155 28.55731244 -11.99020309 24.27761659 -10 20 C-9.48083008 18.88286621 -8.96166016 17.76573242 -8.42675781 16.61474609 C-7.16508179 13.90715916 -5.89804638 11.20225671 -4.625 8.5 C-4.26277344 7.73083252 -3.90054687 6.96166504 -3.52734375 6.16918945 C-1.12577371 1.12577371 -1.12577371 1.12577371 0 0 Z " fill="#312F65" transform="translate(396,30)"/>
<path d="M0 0 C1.3096875 -0.01224609 2.619375 -0.02449219 3.96875 -0.03710938 C5.84046875 -0.04000977 5.84046875 -0.04000977 7.75 -0.04296875 C8.89984375 -0.04707764 10.0496875 -0.05118652 11.234375 -0.05541992 C14 0.1875 14 0.1875 16 2.1875 C15.63664892 4.29493629 14.99338916 6.20602105 14.27514648 8.21826172 C13.85081252 12.79745398 15.43966178 16.57817882 16.91015625 20.8828125 C17.22910858 21.84794769 17.54806091 22.81308289 17.87667847 23.8074646 C18.9276303 26.97958277 19.99499275 30.14591895 21.0625 33.3125 C21.79165643 35.50285262 22.51959035 37.69361257 23.24633789 39.88476562 C24.74475963 44.4002522 26.24843996 48.91394158 27.75488281 53.42675781 C29.91973091 59.92736937 32.04181354 66.4412545 34.1484375 72.9609375 C34.47172531 73.96061554 34.79501312 74.96029358 35.12809753 75.99026489 C36.37128695 79.83613513 37.61364581 83.68226852 38.85305786 87.52935791 C39.70002798 90.15590195 40.55075442 92.78120067 41.40234375 95.40625 C41.6526535 96.18616302 41.90296326 96.96607605 42.16085815 97.7696228 C43.08339577 101.25296685 43.08339577 101.25296685 45 104.1875 C47.00693326 97.34109885 48.99919733 90.49055159 50.98144531 83.63696289 C51.65712974 81.30721206 52.33613421 78.97842141 53.01855469 76.65063477 C54.00034463 73.29952523 54.97004072 69.94511456 55.9375 66.58984375 C56.24373291 65.55415756 56.54996582 64.51847137 56.86547852 63.45140076 C59.36119384 54.72110484 59.42396649 48.36884649 56.55078125 39.8046875 C56.29628708 39.02739288 56.04179291 38.25009827 55.77958679 37.44924927 C55.24093757 35.81547968 54.69688136 34.18348382 54.14770508 32.55322266 C53.31455667 30.06863335 52.50903728 27.57619601 51.70507812 25.08203125 C51.1761315 23.48903373 50.64558564 21.89656616 50.11328125 20.3046875 C49.75826286 19.19515213 49.75826286 19.19515213 49.39607239 18.0632019 C47.77152099 13.33745123 45.84956122 10.54170332 42 7.1875 C41.34 6.5275 40.68 5.8675 40 5.1875 C40.53571429 1.65178571 40.53571429 1.65178571 42 0.1875 C43.41225046 0.0946274 44.82908934 0.07003228 46.24438477 0.07397461 C47.14524307 0.07405014 48.04610138 0.07412567 48.97425842 0.07420349 C49.95341721 0.07936478 50.93257599 0.08452606 51.94140625 0.08984375 C52.93881332 0.0912587 53.9362204 0.09267365 54.96385193 0.09413147 C58.16343124 0.09974886 61.36294169 0.11230429 64.5625 0.125 C66.72591045 0.13001276 68.88932199 0.13457605 71.05273438 0.13867188 C76.36851325 0.14972393 81.68425171 0.16647896 87 0.1875 C87.99 2.6625 87.99 2.6625 89 5.1875 C88.0821875 5.82171875 87.164375 6.4559375 86.21875 7.109375 C82.16036438 10.50409521 80.9729233 14.48382636 79.5 19.4375 C79.22414063 20.24574219 78.94828125 21.05398438 78.6640625 21.88671875 C78.28894531 23.09521484 78.28894531 23.09521484 77.90625 24.328125 C77.68259766 25.04516602 77.45894531 25.76220703 77.22851562 26.50097656 C76.60719386 33.8054901 79.90965041 41.32034938 82.23046875 48.13671875 C82.70073235 49.53758476 82.70073235 49.53758476 83.18049622 50.9667511 C84.17852794 53.93763659 85.18262754 56.90642211 86.1875 59.875 C87.49596562 63.75307558 88.80163339 67.63208411 90.10546875 71.51171875 C90.42611298 72.4649704 90.7467572 73.41822205 91.07711792 74.40036011 C94.50370935 84.62479212 97.76602706 94.90076942 101 105.1875 C110.54816851 72.57916012 119.96896953 39.94319319 129 7.1875 C128.01 6.8575 127.02 6.5275 126 6.1875 C126 4.5375 126 2.8875 126 1.1875 C129.03429677 -0.32964839 132.17601667 0.04386084 135.5 0.0625 C136.18964844 0.05863281 136.87929687 0.05476563 137.58984375 0.05078125 C142.74666707 0.06083354 142.74666707 0.06083354 145 1.1875 C145.3125 3.5 145.3125 3.5 145 6.1875 C144.20859619 6.64736298 143.41719238 7.10722595 142.60180664 7.58102417 C139.59954915 9.43475689 139.12731851 10.29024534 138.05859375 13.57861328 C137.73616699 14.56396057 137.41374023 15.54930786 137.08154297 16.56451416 C134.66334556 24.66506608 132.33924721 32.78827851 130.0625 40.9296875 C129.49528198 42.94560054 128.92764753 44.96139645 128.35961914 46.9770813 C126.87147334 52.26131108 125.38803023 57.54684845 123.90588379 62.83276367 C121.53553334 71.28374496 119.15845086 79.73283338 116.78048706 88.18167496 C115.95691528 91.1106387 115.13563824 94.04023815 114.31469727 96.96994019 C106.54925678 124.63824322 106.54925678 124.63824322 105 126.1875 C101.8852177 126.51939614 98.75520026 126.51230728 95.625 126.5625 C94.7484375 126.59988281 93.871875 126.63726562 92.96875 126.67578125 C91.70417969 126.69318359 91.70417969 126.69318359 90.4140625 126.7109375 C89.25318115 126.7406665 89.25318115 126.7406665 88.06884766 126.77099609 C86 126.1875 86 126.1875 84.48951721 123.98484802 C83.05402004 121.2889509 82.03794654 118.74837238 81.09887695 115.84643555 C80.58868767 114.28538338 80.58868767 114.28538338 80.06819153 112.6927948 C79.53363594 111.02534966 79.53363594 111.02534966 78.98828125 109.32421875 C78.61519333 108.17709915 78.24210541 107.02997955 77.85771179 105.84809875 C76.6701605 102.19225478 75.49122925 98.53369679 74.3125 94.875 C73.50772857 92.39239422 72.70239655 89.90997008 71.89648438 87.42773438 C69.9244855 81.34974721 67.95955227 75.26951062 66 69.1875 C61.04587443 85.22733148 61.04587443 85.22733148 56.41796875 101.36328125 C56.22872833 102.04969696 56.03948792 102.73611267 55.84451294 103.44332886 C55.09528592 106.17029034 54.35031795 108.89835351 53.61157227 111.62817383 C53.05285087 113.68735344 52.48601793 115.74415866 51.91796875 117.80078125 C51.43493286 119.57642456 51.43493286 119.57642456 50.94213867 121.38793945 C50 124.1875 50 124.1875 48 126.1875 C46.02880859 126.41455078 46.02880859 126.41455078 43.6484375 126.3828125 C42.37226562 126.37314453 42.37226562 126.37314453 41.0703125 126.36328125 C39.73613281 126.33814453 39.73613281 126.33814453 38.375 126.3125 C37.4778125 126.30347656 36.580625 126.29445313 35.65625 126.28515625 C33.43723414 126.2615497 31.21874923 126.2286231 29 126.1875 C26.26723574 121.15071068 24.53969493 116.04095728 22.83984375 110.59765625 C22.53762405 109.64477722 22.23540436 108.69189819 21.92402649 107.71014404 C21.26826617 105.64167749 20.6145913 103.57254889 19.96276855 101.50283813 C18.19976948 95.90942497 16.41688096 90.32234448 14.63671875 84.734375 C14.26386749 83.56272293 13.89101624 82.39107086 13.50686646 81.18391418 C9.52003722 68.66229092 5.49860944 56.15225539 1.43606567 43.65499878 C0.64849261 41.22800113 -0.13613923 38.80004697 -0.91775513 36.37112427 C-2.01589706 32.95980925 -3.12390857 29.55185102 -4.234375 26.14453125 C-4.55669601 25.13622253 -4.87901703 24.12791382 -5.21110535 23.08905029 C-7.99736844 13.7491362 -7.99736844 13.7491362 -14.25 6.75 C-14.8275 6.564375 -15.405 6.37875 -16 6.1875 C-16 4.5375 -16 2.8875 -16 1.1875 C-11.42337784 -1.10081108 -5.02502708 0.00247295 0 0 Z M70 7.1875 C68.75453595 9.67842811 69.2232422 10.59830733 70 13.1875 C70.66 13.1875 71.32 13.1875 72 13.1875 C72 11.2075 72 9.2275 72 7.1875 C71.34 7.1875 70.68 7.1875 70 7.1875 Z " fill="#312F65" transform="translate(16,297.8125)"/>
<path d="M0 0 C0.96222977 -0.00960754 1.92445953 -0.01921509 2.91584778 -0.02911377 C3.9667308 -0.03336365 5.01761383 -0.03761353 6.1003418 -0.04199219 C7.72023262 -0.0505423 7.72023262 -0.0505423 9.37284851 -0.05926514 C11.67043066 -0.06873923 13.96802654 -0.07525862 16.265625 -0.07910156 C19.74658899 -0.08872081 23.22694064 -0.11968509 26.70776367 -0.15136719 C28.94278622 -0.15790577 31.17781298 -0.16315287 33.4128418 -0.16699219 C34.44145828 -0.17933899 35.47007477 -0.19168579 36.52986145 -0.20440674 C49.22123872 -0.16620036 60.35793022 2.77224765 69.93237305 11.35253906 C77.99527471 19.64162774 82.46357618 29.66304725 82.73706055 41.28613281 C82.55319378 52.22620551 78.98580227 62.72622391 71.1315918 70.48925781 C69.56062926 71.87789878 67.96590891 73.24039914 66.3425293 74.56738281 C64.3866669 76.03933767 64.3866669 76.03933767 63.48706055 78.16113281 C64.31206055 78.36738281 65.13706055 78.57363281 65.98706055 78.78613281 C74.8950383 82.2856955 81.51677112 89.16503452 85.7409668 97.69238281 C89.02104481 105.92283687 91.95008174 116.4213802 89.48706055 125.16113281 C87.93099304 126.71720032 86.42748683 126.2908405 84.26831055 126.29394531 C82.99407227 126.29587891 82.99407227 126.29587891 81.6940918 126.29785156 C80.80077148 126.29398437 79.90745117 126.29011719 78.98706055 126.28613281 C78.09374023 126.29 77.20041992 126.29386719 76.2800293 126.29785156 C75.43053711 126.2965625 74.58104492 126.29527344 73.70581055 126.29394531 C72.92141602 126.29281738 72.13702148 126.29168945 71.32885742 126.29052734 C69.48706055 126.16113281 69.48706055 126.16113281 68.48706055 125.16113281 C68.15513451 123.06809603 67.82917101 120.97390267 67.53662109 118.875 C65.27784337 101.79355297 65.27784337 101.79355297 55.48706055 88.16113281 C48.37805095 83.66685442 41.13032593 83.51103698 32.92456055 83.41113281 C31.72508789 83.38148438 30.52561523 83.35183594 29.28979492 83.32128906 C26.35548478 83.25114619 23.42194361 83.1981741 20.48706055 83.16113281 C20.58077153 87.64554639 20.686904 92.12944368 20.80444336 96.61328125 C20.84267321 98.13793939 20.87753654 99.66268589 20.90893555 101.1875 C20.95471717 103.38215662 21.01268821 105.57620821 21.07299805 107.77050781 C21.08454926 108.44982361 21.09610046 109.1291394 21.10800171 109.82904053 C21.21864933 113.39500085 21.4380508 116.17727944 23.48706055 119.16113281 C24.14706055 119.49113281 24.80706055 119.82113281 25.48706055 120.16113281 C25.52978155 121.82725186 25.52769887 123.49496166 25.48706055 125.16113281 C23.62991998 127.01827338 20.56199006 126.29161962 18.08081055 126.29394531 C16.78014648 126.29523438 15.47948242 126.29652344 14.1394043 126.29785156 C13.45861816 126.29575684 12.77783203 126.29366211 12.07641602 126.29150391 C9.9957754 126.28615522 7.91535066 126.29144961 5.8347168 126.29785156 C3.8837207 126.29591797 3.8837207 126.29591797 1.89331055 126.29394531 C0.6899707 126.29281738 -0.51336914 126.29168945 -1.75317383 126.29052734 C-4.51293945 126.16113281 -4.51293945 126.16113281 -5.51293945 125.16113281 C-5.76293945 122.72363281 -5.76293945 122.72363281 -5.51293945 120.16113281 C-4.02793945 119.17113281 -4.02793945 119.17113281 -2.51293945 118.16113281 C-2.05875939 116.13504777 -2.05875939 116.13504777 -2.13198853 113.75805664 C-2.12352905 112.83264069 -2.11506958 111.90722473 -2.10635376 110.95376587 C-2.11242645 109.93551727 -2.11849915 108.91726868 -2.12475586 107.86816406 C-2.1194989 106.79819183 -2.11424194 105.7282196 -2.10882568 104.62582397 C-2.09557887 101.07494682 -2.10438054 97.52451484 -2.11450195 93.97363281 C-2.11248257 91.51505446 -2.10957227 89.05647669 -2.10580444 86.59790039 C-2.10137473 81.439558 -2.10783308 76.28137121 -2.12182617 71.12304688 C-2.13891822 64.49804805 -2.12908052 57.87341378 -2.11110878 51.24842834 C-2.10028851 46.16993442 -2.10370923 41.09152749 -2.11149216 36.01303101 C-2.11349902 33.56969154 -2.11101795 31.12634428 -2.1040535 28.68301392 C-2.09646801 25.27316244 -2.10800289 21.86390834 -2.12475586 18.45410156 C-2.11868317 17.43585297 -2.11261047 16.41760437 -2.10635376 15.36849976 C-2.11481323 14.4430838 -2.12327271 13.51766785 -2.13198853 12.56420898 C-2.1331196 11.75747238 -2.13425068 10.95073578 -2.13541603 10.11955261 C-2.25999876 9.47327408 -2.38458149 8.82699554 -2.51293945 8.16113281 C-3.50293945 7.50113281 -4.49293945 6.84113281 -5.51293945 6.16113281 C-5.76293945 3.59863281 -5.76293945 3.59863281 -5.51293945 1.16113281 C-3.91256937 -0.43923727 -2.21646376 0.0178083 0 0 Z M20.48706055 10.16113281 C20.48706055 31.28113281 20.48706055 52.40113281 20.48706055 74.16113281 C37.110552 75.69948249 37.110552 75.69948249 49.46362305 69.50488281 C58.17936243 59.75647289 59.31809661 49.6380073 58.86206055 36.98925781 C58.18713682 26.13142239 54.54849161 18.50715549 46.48706055 11.16113281 C38.72962684 7.28241596 29.1601351 10.16113281 20.48706055 10.16113281 Z " fill="#312F65" transform="translate(609.512939453125,297.8388671875)"/>
<path d="M0 0 C0.91981155 -0.00570007 1.83962311 -0.01140015 2.78730774 -0.01727295 C4.74694666 -0.02674905 6.7066017 -0.03326722 8.66625977 -0.03710938 C11.61830205 -0.04668849 14.56960957 -0.07763174 17.52148438 -0.109375 C37.23726657 -0.22239953 53.78426177 2.35925784 68.63671875 16.55859375 C81.93330384 31.51173014 87.07193387 49.38675963 86.12744141 69.16992188 C84.90395622 87.04568439 77.24214312 102.32722962 63.98828125 114.203125 C54.88066718 121.30113823 43.80506834 126.34818373 32.10620117 126.31665039 C31.16560349 126.31657486 30.2250058 126.31649933 29.25590515 126.31642151 C28.25364395 126.31126022 27.25138275 126.30609894 26.21875 126.30078125 C25.18261063 126.2993663 24.14647125 126.29795135 23.07893372 126.29649353 C19.77785321 126.29090742 16.47684117 126.27835742 13.17578125 126.265625 C10.93424577 126.26060821 8.69270923 126.25604561 6.45117188 126.25195312 C0.96351841 126.24094253 -4.52409528 126.22421818 -10.01171875 126.203125 C-10.50671875 123.728125 -10.50671875 123.728125 -11.01171875 121.203125 C-9.03171875 120.213125 -9.03171875 120.213125 -7.01171875 119.203125 C-7.01171875 82.243125 -7.01171875 45.283125 -7.01171875 7.203125 C-8.33171875 6.873125 -9.65171875 6.543125 -11.01171875 6.203125 C-9.68610759 -1.18242289 -6.92402959 0.03300788 0 0 Z M15.98828125 10.203125 C15.98828125 45.513125 15.98828125 80.823125 15.98828125 117.203125 C34.07781597 117.38355223 34.07781597 117.38355223 47.98828125 108.203125 C60.15859856 94.03808763 64.12815595 75.46184519 62.98828125 57.203125 C61.90980405 47.22178236 59.98753832 38.01947864 54.98828125 29.203125 C54.54613281 28.41550781 54.10398437 27.62789063 53.6484375 26.81640625 C49.03405099 19.28767037 43.22043802 13.49598771 34.98828125 10.203125 C28.71828125 10.203125 22.44828125 10.203125 15.98828125 10.203125 Z " fill="#312F65" transform="translate(411.01171875,297.796875)"/>
<path d="M0 0 C14.97089624 12.08551023 21.47673466 29.53262322 24 48 C25.68040476 66.21195425 19.90747932 84.47089669 9 99 C-1.37371951 111.28277206 -13.92925102 118.25639072 -29.875 119.8125 C-45.78094796 120.64147449 -58.65581223 115.31631729 -70.97265625 105.4140625 C-83.14133898 94.04923353 -90.63897962 77.24142429 -91.3359375 60.65234375 C-91.67289249 39.46652911 -87.78089835 22.14359518 -73.58203125 5.57421875 C-52.87138414 -15.07376377 -23.63356986 -16.48777481 0 0 Z M-56 11 C-61.19047257 19.32370438 -65.12326054 28.35262857 -67 38 C-67.18046875 38.88816406 -67.3609375 39.77632813 -67.546875 40.69140625 C-70.35489252 61.19477557 -67.0720337 81.57249227 -55.12109375 98.69140625 C-50.06729627 104.88868922 -44.22123767 109.18440918 -36.19921875 110.4375 C-27.32421118 110.83030808 -21.90087361 107.97800444 -15.4375 102.125 C-3.00114596 89.00250229 1.34088563 69.63230932 1 52 C0.27422719 34.93609156 -4.70375568 16.40677615 -17.5 4.4375 C-23.1677352 -0.16753485 -28.22516287 -2.66444198 -35.6796875 -2.3359375 C-44.42957829 -1.06911829 -50.73604949 4.12425579 -56 11 Z " fill="#312F65" transform="translate(252,307)"/>
<path d="M0 0 C22.77 0 45.54 0 69 0 C71.48434342 4.96868684 71.9683573 9.47839214 72.6875 14.9375 C72.82994141 15.92685547 72.97238281 16.91621094 73.11914062 17.93554688 C73.24869141 18.89396484 73.37824219 19.85238281 73.51171875 20.83984375 C73.68900513 22.14489868 73.68900513 22.14489868 73.86987305 23.47631836 C74.00841015 26.16310651 73.63475072 28.39468859 73 31 C71.68 31.33 70.36 31.66 69 32 C67.03363141 28.95212868 65.51218876 25.90077539 64.125 22.5625 C62.12499068 17.95478623 59.66256842 13.33128421 55 11 C52.75025839 10.84504237 50.49628464 10.74989072 48.2421875 10.68359375 C47.02901855 10.64548584 45.81584961 10.60737793 44.56591797 10.56811523 C43.01791504 10.52501221 41.46991211 10.48190918 39.875 10.4375 C34.96625 10.293125 30.0575 10.14875 25 10 C25 26.17 25 42.34 25 59 C41.9080528 59.37896145 41.9080528 59.37896145 48 56 C51.9650312 50.20579695 53.7874227 43.83452662 55 37 C58.75 35.875 58.75 35.875 61 37 C61 54.16 61 71.32 61 89 C58.525 89.495 58.525 89.495 56 90 C54.24719908 85.9550748 53.13585349 81.86448123 52.07421875 77.59765625 C50.80248301 74.15700213 50.80248301 74.15700213 46 69 C39.07 68.67 32.14 68.34 25 68 C25 84.17 25 100.34 25 117 C30.32125 116.896875 35.6425 116.79375 41.125 116.6875 C42.79320801 116.66260498 44.46141602 116.63770996 46.18017578 116.61206055 C47.51858242 116.57974219 48.85696408 116.54636448 50.1953125 116.51171875 C50.877146 116.50547485 51.55897949 116.49923096 52.26147461 116.49279785 C56.87208265 116.35542871 60.06117578 115.38586701 64 113 C68.7204589 107.87845635 71.20994728 101.64203773 73 95 C74.98 95 76.96 95 79 95 C79.16071452 101.81988566 78.57580306 108.2603564 77.5625 115 C77.42779297 115.95261719 77.29308594 116.90523438 77.15429688 117.88671875 C76.13375235 124.86624765 76.13375235 124.86624765 75 126 C72.65746218 126.09492722 70.34453896 126.12559791 68.00170898 126.11352539 C66.90421326 126.11374443 66.90421326 126.11374443 65.7845459 126.1139679 C63.35503216 126.11326867 60.92559417 126.10547585 58.49609375 126.09765625 C56.81600486 126.0957921 55.13591543 126.09436819 53.45582581 126.09336853 C49.02526357 126.08954307 44.5947339 126.07971256 40.16418457 126.06866455 C35.64657024 126.05845103 31.12895066 126.05387104 26.61132812 126.04882812 C17.74087107 126.03809031 8.87043824 126.02101356 0 126 C-0.66 124.68 -1.32 123.36 -2 122 C-1.02601257 121.3344812 -1.02601257 121.3344812 -0.03234863 120.65551758 C3.11342645 116.54516914 2.55808336 112.55386495 2.51757812 107.51171875 C2.5245874 106.44466705 2.53159668 105.37761536 2.53881836 104.27822876 C2.55643715 100.74772186 2.54476117 97.21801519 2.53125 93.6875 C2.53394378 91.2365707 2.53782524 88.78564244 2.54284668 86.3347168 C2.54874702 81.1966739 2.54016112 76.05890904 2.52148438 70.92089844 C2.49869501 64.32968515 2.51181515 57.73912334 2.53577423 51.14793396 C2.55021744 46.08649778 2.5456329 41.02521644 2.53526306 35.96377563 C2.53259171 33.53325321 2.5358798 31.10271679 2.54518127 28.67221069 C2.55532207 25.27718784 2.53987892 21.883225 2.51757812 18.48828125 C2.52567505 17.4803653 2.53377197 16.47244934 2.54211426 15.43399048 C2.55904606 9.98386793 2.55904606 9.98386793 -0.03234863 5.34448242 C-0.68167358 4.90080322 -1.33099854 4.45712402 -2 4 C-1.34 2.68 -0.68 1.36 0 0 Z " fill="#312F65" transform="translate(512,298)"/>
<path d="M0 0 C1.17260376 0.58890015 1.17260376 0.58890015 2.36889648 1.18969727 C5.19967519 2.90642578 7.00932624 4.33966114 9 7 C10.15770276 12.30855502 9.94110453 17.43180637 9.6875 22.8125 C9.65946701 24.2570903 9.63534311 25.70176204 9.61523438 27.14648438 C9.37839523 37.62160477 9.37839523 37.62160477 7 40 C3.46428571 39.46428571 3.46428571 39.46428571 2 38 C1.7258072 35.85712366 1.48120981 33.71043918 1.25 31.5625 C-0.02617986 22.40567661 -2.64208394 14.91458467 -10.19140625 9.18359375 C-16.28136165 5.19815857 -21.85272563 3.99491454 -29 5 C-33.11842069 6.29396326 -36.08443937 7.99860556 -39 11.1875 C-40.63524438 15.78662481 -40.99363248 20.31826073 -39.2734375 24.9609375 C-37.12415625 28.96244488 -34.33042594 31.96561192 -31 35 C-30.41992188 35.56074219 -29.83984375 36.12148438 -29.2421875 36.69921875 C-23.86899938 41.73530572 -18.03223139 45.81773667 -11.94946289 49.92773438 C-6.39729602 53.68961603 -1.11903152 57.6618377 4 62 C4.86367188 62.70640625 5.72734375 63.4128125 6.6171875 64.140625 C14.7616808 71.05256887 21.05639681 79.17305981 22.37109375 90.078125 C22.5367657 97.99139682 21.30219693 103.34660242 17 110 C16.13375 111.36125 16.13375 111.36125 15.25 112.75 C4.61502844 123.38497156 -9.41465843 125.98610458 -23.93505859 126.0390625 C-34.18477778 125.84516855 -43.81659675 123.57504491 -53 119 C-53.78084961 118.68522705 -54.56169922 118.3704541 -55.36621094 118.04614258 C-58.22547286 116.62917069 -59.9665749 115.47743163 -62 113 C-63.15375768 107.70015332 -62.89451282 102.55902347 -62.625 97.1875 C-62.58839433 95.72991387 -62.55580236 94.27222108 -62.52734375 92.81445312 C-62.26271621 82.26271621 -62.26271621 82.26271621 -61 81 C-59.33382885 80.95936168 -57.66611905 80.957279 -56 81 C-54.73257526 83.53484947 -54.5681473 85.8146134 -54.1875 88.625 C-52.46143836 98.95671179 -48.58711611 104.84884868 -40 111 C-32.00644387 115.94905388 -23.08077086 115.91649387 -14 115 C-9.06347967 113.81095992 -6.01578428 112.01578428 -2.4375 108.4375 C-0.36973847 103.49285287 -0.03880631 99.27555928 -1 94 C-5.42265413 84.1388878 -14.57361311 77.30650778 -23.125 71.1875 C-24.81319058 69.96058507 -26.50068816 68.73271603 -28.1875 67.50390625 C-29.00734375 66.90852051 -29.8271875 66.31313477 -30.671875 65.69970703 C-35.86665798 61.90712323 -40.96505721 58.00267418 -46 54 C-47.27810547 52.99066406 -47.27810547 52.99066406 -48.58203125 51.9609375 C-55.69671083 46.03793725 -62.29058578 37.67954946 -63.30078125 28.16796875 C-63.3393726 18.35290269 -61.80246417 12.08085792 -55.01171875 4.8203125 C-51.66227607 1.78955465 -48.1187994 -0.18772826 -44 -2 C-43.3090625 -2.3196875 -42.618125 -2.639375 -41.90625 -2.96875 C-29.05125502 -7.85726922 -11.95970829 -6.56413422 0 0 Z " fill="#312F64" transform="translate(979,301)"/>
<path d="M0 0 C3.80069972 2.35674324 5.23103433 5.06629443 7.06103516 9.08642578 C8.98361769 13.00457499 11.50885186 16.58953297 13.875 20.25 C14.91499165 21.90745624 15.95276256 23.56630804 16.98828125 25.2265625 C19.61154696 29.40679347 22.30870312 33.52986422 25.0625 37.625 C28.94412158 43.40079123 32.75094293 49.22005836 36.52124023 55.0690918 C39.33283668 59.42857365 42.15822738 63.77865444 44.99609375 68.12109375 C45.67969971 69.16716797 46.36330566 70.21324219 47.06762695 71.29101562 C48.42339287 73.36448319 49.7799813 75.43741322 51.13745117 77.50976562 C51.75467041 78.45400391 52.37188965 79.39824219 53.0078125 80.37109375 C53.56098145 81.21599365 54.11415039 82.06089355 54.68408203 82.93139648 C56 85 56 85 57 87 C57.02316636 77.29030233 57.04093703 67.58061124 57.05181217 57.87089157 C57.05703158 53.36232273 57.06411219 48.8537728 57.07543945 44.34521484 C57.08630173 39.99452783 57.09228394 35.64385901 57.09487724 31.29315948 C57.09672546 29.63297489 57.10033451 27.9727913 57.10573006 26.31261444 C57.11298478 23.98801011 57.11398906 21.66348101 57.11352539 19.33886719 C57.1189183 18.30848076 57.1189183 18.30848076 57.12442017 17.25727844 C57.16632346 10.90579703 57.16632346 10.90579703 53.9375 5.75 C53.298125 5.1725 52.65875 4.595 52 4 C52.66 2.68 53.32 1.36 54 0 C56.62527189 -0.05382106 59.24944713 -0.09358313 61.875 -0.125 C62.62136719 -0.14175781 63.36773438 -0.15851563 64.13671875 -0.17578125 C66.09194461 -0.1933959 68.04742021 -0.10320189 70 0 C70.99 0.99 70.99 0.99 72 2 C71.8125 4.0625 71.8125 4.0625 71 6 C70.01 6.33 69.02 6.66 68 7 C67.99576806 7.60114309 67.99153612 8.20228619 67.98717594 8.82164574 C67.88396417 23.43483905 67.77534072 38.04798517 67.66066074 52.66109276 C67.60533397 59.72782094 67.55185287 66.79455418 67.50268555 73.86132812 C67.45526773 80.67590813 67.40274786 87.49043335 67.34705925 94.30495071 C67.32661436 96.91015975 67.30790488 99.51538298 67.29092598 102.12061691 C67.26692918 105.75803531 67.23686818 109.39535521 67.20532227 113.03271484 C67.1995668 114.1195607 67.19381134 115.20640656 67.18788147 116.32618713 C67.17809265 117.31339249 67.16830383 118.30059784 67.15821838 119.31771851 C67.15176583 120.17867315 67.14531328 121.0396278 67.1386652 121.92667198 C67 124 67 124 66 126 C63.06156793 126.67339068 61.80986839 126.88988154 59 126 C55.68646887 122.83406491 53.42436975 118.85882672 51 115 C49.91102458 113.29892298 48.82110685 111.59844898 47.73046875 109.8984375 C45.29076707 106.0833875 42.86620399 102.25916304 40.44921875 98.4296875 C37.67012605 94.03749127 34.83832723 89.68755914 31.9375 85.375 C27.66757838 79.02291346 23.48530706 72.61718157 19.3215332 66.19506836 C16.10320833 61.232879 12.87622477 56.27651355 9.63671875 51.328125 C9.07581795 50.47121819 9.07581795 50.47121819 8.50358582 49.59700012 C6.66991781 46.79606244 4.83534988 43.99572117 2.99975586 41.19604492 C2.32178955 40.16068604 1.64382324 39.12532715 0.9453125 38.05859375 C0.35250488 37.15423584 -0.24030273 36.24987793 -0.85107422 35.31811523 C-3.92988864 30.56417672 -6.95922567 25.77835967 -10 21 C-10 53.34 -10 85.68 -10 119 C-8.68 119.33 -7.36 119.66 -6 120 C-5.957279 121.66611905 -5.95936168 123.33382885 -6 125 C-7 126 -7 126 -10.81640625 126.09765625 C-12.39846682 126.09098089 -13.98051159 126.07901875 -15.5625 126.0625 C-16.36880859 126.05798828 -17.17511719 126.05347656 -18.00585938 126.04882812 C-20.00393756 126.03700518 -22.00197783 126.01906914 -24 126 C-24.495 123.525 -24.495 123.525 -25 121 C-23.02 120.01 -23.02 120.01 -21 119 C-20.90655912 104.85731349 -20.83628806 90.71467484 -20.79275131 76.57174301 C-20.77185804 70.00491394 -20.74350805 63.43829192 -20.69824219 56.87158203 C-20.65484741 50.5368165 -20.63087601 44.20225039 -20.62049103 37.86734772 C-20.61308828 35.44795847 -20.59863284 33.02858039 -20.57707977 30.60927582 C-20.54813134 27.22592908 -20.54404053 23.84341117 -20.54589844 20.45996094 C-20.53151733 19.45511154 -20.51713623 18.45026215 -20.50231934 17.41496277 C-20.41476573 12.03300587 -20.41476573 12.03300587 -23.01275635 7.51812744 C-23.66854675 7.01714539 -24.32433716 6.51616333 -25 6 C-25.25 3.25 -25.25 3.25 -25 1 C-18.31065755 -2.34467123 -7.17720058 -1.2760994 0 0 Z " fill="#312F65" transform="translate(737,298)"/>
<path d="M0 0 C1.55074219 -0.10634766 1.55074219 -0.10634766 3.1328125 -0.21484375 C10.5977509 -0.39575425 10.5977509 -0.39575425 13.90405273 2.24658203 C15.78971622 4.6075982 17.33031781 7.02813627 18.875 9.625 C20.15176606 11.56548439 21.42913646 13.50557125 22.70703125 15.4453125 C24.03792328 17.54430045 25.36462164 19.64595227 26.6875 21.75 C28.10308828 23.982455 29.5197509 26.21422913 30.9375 28.4453125 C31.95457031 30.04681152 31.95457031 30.04681152 32.9921875 31.68066406 C35.34508092 35.36011098 37.74900149 39.00190141 40.1875 42.625 C44.4577778 48.97641858 48.62564459 55.38983515 52.77270508 61.82226562 C56.08036277 66.94765147 59.40464454 72.06217146 62.73046875 77.17578125 C63.32484741 78.08992798 63.91922607 79.00407471 64.53161621 79.94592285 C65.9792786 82.17236792 67.42707536 84.39872548 68.875 86.625 C68.96766175 76.7849946 69.03874551 66.94509291 69.08224869 57.10474014 C69.10312765 52.53549036 69.13145071 47.96653898 69.17675781 43.39746094 C69.22020488 38.98839127 69.24413478 34.5796087 69.25450897 30.17034149 C69.26190243 28.48778513 69.27634017 26.80524457 69.29792023 25.12281036 C69.32694003 22.76674899 69.33095675 20.41187527 69.32910156 18.05566406 C69.34348267 17.35938904 69.35786377 16.66311401 69.37268066 15.94573975 C69.34345721 12.51792495 69.1619297 10.95181465 66.86224365 8.3324585 C65.87855804 7.48726654 65.87855804 7.48726654 64.875 6.625 C64.625 3.875 64.625 3.875 64.875 1.625 C67.90929677 0.10785161 71.05101667 0.48136084 74.375 0.5 C75.06464844 0.49613281 75.75429688 0.49226563 76.46484375 0.48828125 C81.62166707 0.49833354 81.62166707 0.49833354 83.875 1.625 C84.125 3.875 84.125 3.875 83.875 6.625 C83.2207756 7.11494949 82.56655121 7.60489899 81.89250183 8.10969543 C78.62616689 12.18197287 79.31339112 16.55203587 79.3449707 21.61987305 C79.33623932 22.74051147 79.32750793 23.8611499 79.31851196 25.01574707 C79.29409726 28.72289958 79.29754904 32.42949596 79.30078125 36.13671875 C79.288343 38.70694434 79.27401071 41.2771614 79.25785828 43.84736633 C79.22366857 49.92345368 79.20643145 55.99936172 79.1980831 62.07553273 C79.18132554 73.61209907 79.12197982 85.14851517 79.06630516 96.68494606 C79.05089551 100.48355199 79.04375608 104.2821025 79.03816223 108.08073425 C79.03114986 110.39325997 79.02404925 112.70578542 79.0168457 115.01831055 C79.01737442 116.08376602 79.01790314 117.1492215 79.01844788 118.2469635 C79.0144397 119.21018524 79.01043152 120.17340698 79.00630188 121.16581726 C79.0050446 122.00774974 79.00378733 122.84968222 79.00249195 123.7171278 C78.875 125.625 78.875 125.625 77.875 126.625 C74.5859375 127.0546875 74.5859375 127.0546875 70.875 126.625 C68.95522409 124.62605807 67.8499032 123.10408821 66.5 120.75 C65.64311844 119.36644894 64.78494287 117.98369884 63.92578125 116.6015625 C63.44963379 115.81813477 62.97348633 115.03470703 62.48291016 114.22753906 C59.32874527 109.12225548 55.98647836 104.13736401 52.6875 99.125 C51.20482503 96.85951098 49.72525902 94.59200043 48.24609375 92.32421875 C47.50634858 91.19059185 46.76660249 90.05696554 46.02685547 88.92333984 C45.31674316 87.8348877 44.60663086 86.74643555 43.875 85.625 C43.21773926 84.61775879 42.56047852 83.61051758 41.88330078 82.57275391 C36.26027459 73.95499564 30.63836488 65.33651836 25.02734375 56.7109375 C24.06272217 55.22920044 24.06272217 55.22920044 23.07861328 53.7175293 C21.88475793 51.88359116 20.69162628 50.04918151 19.49951172 48.21411133 C15.58285587 42.19952844 11.61355441 36.22141398 7.62963867 30.2512207 C6.79769108 29.00392056 6.79769108 29.00392056 5.94893646 27.73142242 C4.59115153 25.69581883 3.23316789 23.6603481 1.875 21.625 C1.85184451 33.68160724 1.83406851 45.7382092 1.82318783 57.79483414 C1.81796604 63.3930159 1.81088111 68.99118246 1.79956055 74.58935547 C1.78870673 79.99042663 1.78271785 85.39148316 1.78012276 90.79256439 C1.77827302 92.85466492 1.77466103 94.91676464 1.76926994 96.97885895 C1.76202647 99.86385335 1.76101047 102.74878705 1.76147461 105.63378906 C1.75787933 106.48902664 1.75428406 107.34426422 1.75057983 108.22541809 C1.7519545 109.01343307 1.75332916 109.80144806 1.75474548 110.61334229 C1.75336279 111.6365325 1.75336279 111.6365325 1.75195217 112.68039322 C2.05056142 117.39951409 3.35170461 119.44266868 6.875 122.625 C6.215 123.945 5.555 125.265 4.875 126.625 C2.24972811 126.67882106 -0.37444713 126.71858313 -3 126.75 C-3.74636719 126.76675781 -4.49273437 126.78351563 -5.26171875 126.80078125 C-7.21694461 126.8183959 -9.17242021 126.72820189 -11.125 126.625 C-11.785 125.965 -12.445 125.305 -13.125 124.625 C-12.9375 122.5625 -12.9375 122.5625 -12.125 120.625 C-10.64 120.13 -10.64 120.13 -9.125 119.625 C-9.125 82.665 -9.125 45.705 -9.125 7.625 C-10.445 6.965 -11.765 6.305 -13.125 5.625 C-11.52194577 -1.47424015 -6.51076255 0.19849886 0 0 Z " fill="#312F65" transform="translate(302.125,297.375)"/>
<path d="M0 0 C0.66992981 -0.0049649 1.33985962 -0.00992981 2.03009033 -0.01504517 C4.25517793 -0.02969864 6.48019426 -0.0364737 8.70532227 -0.04199219 C10.24609887 -0.04774062 11.78687544 -0.05349839 13.32765198 -0.05926514 C16.56169978 -0.06978393 19.79572265 -0.07562096 23.02978516 -0.07910156 C27.18077658 -0.08459095 31.33144072 -0.10862444 35.48232937 -0.13707352 C38.66584751 -0.15566484 41.84928623 -0.16090359 45.03285408 -0.16243744 C46.56352594 -0.16547201 48.09419614 -0.17352748 49.62481499 -0.18662262 C51.7631534 -0.20361229 53.90068464 -0.201821 56.0390625 -0.1953125 C57.25738266 -0.19895813 58.47570282 -0.20260376 59.73094177 -0.20635986 C60.6725264 -0.08508728 61.61411102 0.0361853 62.58422852 0.16113281 C64.61718731 3.21057101 64.97097081 4.56403761 65.43579102 8.09082031 C65.56469727 9.05117188 65.69360352 10.01152344 65.82641602 11.00097656 C65.95274414 12.00257813 66.07907227 13.00417969 66.20922852 14.03613281 C66.41032227 15.52693359 66.41032227 15.52693359 66.61547852 17.04785156 C67.84636594 26.43022819 67.84636594 26.43022819 67.58422852 30.16113281 C66.92422852 30.82113281 66.26422852 31.48113281 65.58422852 32.16113281 C63.60766602 32.13769531 63.60766602 32.13769531 61.58422852 31.16113281 C60.31079102 28.68457031 60.31079102 28.68457031 59.20922852 25.53613281 C56.9933338 19.78029484 54.39329396 14.06566553 48.58422852 11.16113281 C46.3344869 11.00617518 44.08051315 10.91102354 41.82641602 10.84472656 C40.61324707 10.80661865 39.40007813 10.76851074 38.15014648 10.72924805 C36.60214355 10.68614502 35.05414062 10.64304199 33.45922852 10.59863281 C28.55047852 10.45425781 23.64172852 10.30988281 18.58422852 10.16113281 C18.58422852 26.33113281 18.58422852 42.50113281 18.58422852 59.16113281 C37.40130239 60.46224781 37.40130239 60.46224781 43.58422852 53.16113281 C46.72715834 48.15572606 47.61942328 42.90456165 48.58422852 37.16113281 C52.33422852 36.03613281 52.33422852 36.03613281 54.58422852 37.16113281 C54.58422852 54.32113281 54.58422852 71.48113281 54.58422852 89.16113281 C52.10922852 89.65613281 52.10922852 89.65613281 49.58422852 90.16113281 C49.33672852 89.39800781 49.08922852 88.63488281 48.83422852 87.84863281 C48.42172852 86.63175781 48.00922852 85.41488281 47.58422852 84.16113281 C47.29290039 83.2678125 47.00157227 82.37449219 46.70141602 81.45410156 C46.37399414 80.49117188 46.04657227 79.52824219 45.70922852 78.53613281 C45.40243164 77.61574219 45.09563477 76.69535156 44.77954102 75.74707031 C43.52438295 72.64106575 43.52438295 72.64106575 39.58422852 69.16113281 C32.65422852 68.83113281 25.72422852 68.50113281 18.58422852 68.16113281 C18.58422852 84.33113281 18.58422852 100.50113281 18.58422852 117.16113281 C24.07047852 117.07863281 29.55672852 116.99613281 35.20922852 116.91113281 C36.92964355 116.8953418 38.65005859 116.87955078 40.42260742 116.86328125 C41.80203543 116.83388801 43.18143389 116.80305802 44.56079102 116.77050781 C45.26421631 116.76937988 45.9676416 116.76825195 46.69238281 116.76708984 C51.76073795 116.62141683 54.65085108 115.30805682 58.58422852 112.16113281 C62.7120513 107.26851037 65.15423687 101.02569367 67.58422852 95.16113281 C69.23422852 95.16113281 70.88422852 95.16113281 72.58422852 95.16113281 C73.02033908 102.34888093 72.27076813 109.20262505 71.14672852 116.28613281 C71.01226318 117.13989502 70.87779785 117.99365723 70.73925781 118.87329102 C69.71976906 125.02559227 69.71976906 125.02559227 68.58422852 126.16113281 C66.24708527 126.26136836 63.93948527 126.29732484 61.60180664 126.29052734 C60.87174911 126.29227966 60.14169159 126.29403198 59.38951111 126.2958374 C56.96480973 126.3002558 54.54018069 126.29731798 52.11547852 126.29394531 C50.43778469 126.29461836 48.76009095 126.29558838 47.08239746 126.29684448 C43.56167678 126.29832144 40.04098142 126.29616697 36.52026367 126.29150391 C31.99712356 126.28580662 27.47404278 126.28908563 22.95090485 126.29507637 C19.48520456 126.29868205 16.01951845 126.29754337 12.55381775 126.29494858 C10.88557427 126.29427933 9.21732952 126.29510767 7.54908752 126.29742813 C5.22157358 126.29995477 2.89415704 126.29611394 0.56665039 126.29052734 C-0.12948868 126.29255157 -0.82562775 126.29457581 -1.54286194 126.29666138 C-6.30150875 126.27539555 -6.30150875 126.27539555 -7.41577148 125.16113281 C-7.66577148 122.72363281 -7.66577148 122.72363281 -7.41577148 120.16113281 C-5.93077148 119.17113281 -5.93077148 119.17113281 -4.41577148 118.16113281 C-3.39850756 115.38491456 -3.29027779 112.77212469 -3.28878784 109.8347168 C-3.28596802 108.97675507 -3.28314819 108.11879333 -3.28024292 107.23483276 C-3.28327927 105.83516769 -3.28327927 105.83516769 -3.28637695 104.40722656 C-3.28462463 103.41820343 -3.28287231 102.4291803 -3.28106689 101.41018677 C-3.27666424 98.13965095 -3.27958082 94.86916918 -3.28295898 91.59863281 C-3.28228549 89.32706695 -3.28131508 87.05550116 -3.28005981 84.78393555 C-3.27858499 80.02261672 -3.28073051 75.26131665 -3.28540039 70.5 C-3.29109754 64.39326993 -3.28781739 58.28658381 -3.28182793 52.17985535 C-3.27821652 47.48905099 -3.27936358 42.79825707 -3.28195572 38.10745239 C-3.28262338 35.85556025 -3.28180216 33.60366716 -3.27947617 31.35177612 C-3.27694019 28.20617151 -3.28080368 25.06063834 -3.28637695 21.91503906 C-3.28435272 20.98192902 -3.28232849 20.04881897 -3.28024292 19.08743286 C-3.28306274 18.22947113 -3.28588257 17.3715094 -3.28878784 16.48754883 C-3.28935338 15.37259789 -3.28935338 15.37259789 -3.28993034 14.23512268 C-3.42324581 12.03794831 -3.65703738 10.23179651 -4.41577148 8.16113281 C-5.40577148 7.50113281 -6.39577148 6.84113281 -7.41577148 6.16113281 C-7.66577148 3.59863281 -7.66577148 3.59863281 -7.41577148 1.16113281 C-5.55870174 -0.69593693 -2.48202045 0.01391943 0 0 Z " fill="#312F65" transform="translate(830.415771484375,297.8388671875)"/>
<path d="M0 0 C0.78807541 0.00045319 1.57615082 0.00090637 2.3881073 0.00137329 C3.21409424 -0.00198532 4.04008118 -0.00534393 4.89109802 -0.00880432 C7.63564028 -0.01834353 10.38012173 -0.02025891 13.12467957 -0.02133179 C15.02418036 -0.02454229 16.92368089 -0.0279062 18.82318115 -0.03141785 C22.81048659 -0.03741654 26.79777032 -0.03925699 30.78507996 -0.03866577 C35.90453171 -0.0385641 41.02384492 -0.05221792 46.14326382 -0.06943798 C50.06794885 -0.08053444 53.99260015 -0.08258571 57.91729927 -0.08205605 C59.80521688 -0.08323966 61.69313527 -0.08768265 63.58103752 -0.09538841 C66.21734812 -0.10514107 68.85335473 -0.10232911 71.4896698 -0.09628296 C72.27572098 -0.10190247 73.06177216 -0.10752197 73.87164307 -0.11331177 C79.27527033 -0.08167852 79.27527033 -0.08167852 81.50358582 2.14663696 C82.00602722 4.06680298 82.00602722 4.06680298 82.35514832 6.40054321 C82.48405457 7.25583618 82.61296082 8.11112915 82.74577332 8.99234009 C82.87210144 9.88888306 82.99842957 10.78542603 83.12858582 11.70913696 C83.32967957 13.01334595 83.32967957 13.01334595 83.53483582 14.34390259 C84.36204016 20.00349964 84.63130344 25.42837051 84.50358582 31.14663696 C82.85358582 31.47663696 81.20358582 31.80663696 79.50358582 32.14663696 C79.20065613 31.3615979 78.89772644 30.57655884 78.58561707 29.76773071 C74.89441381 19.60208722 74.89441381 19.60208722 67.62174988 11.99282837 C65.35509718 11.08731681 63.60708777 10.83678705 61.17546082 10.73257446 C60.37624207 10.69390259 59.57702332 10.65523071 58.75358582 10.61538696 C57.92858582 10.58444946 57.10358582 10.55351196 56.25358582 10.52163696 C55.41311707 10.48296509 54.57264832 10.44429321 53.70671082 10.40444946 C51.639352 10.31047861 49.57149955 10.22748133 47.50358582 10.14663696 C47.54073667 24.17643446 47.60083767 38.20597197 47.68748856 52.2355547 C47.72704803 58.74962709 47.75919497 65.26356258 47.77458191 71.77774048 C47.78969263 78.06079088 47.82403876 84.34346512 47.87189484 90.6263485 C47.88676637 93.0269615 47.89463011 95.4276282 47.89546967 97.82828712 C47.89782368 101.18326864 47.92477784 104.53719722 47.95768738 107.89199829 C47.95265701 108.89109222 47.94762665 109.89018616 47.94244385 110.91955566 C47.95635666 111.83240829 47.97026947 112.74526093 47.98460388 113.68577576 C47.98829105 114.47943952 47.99197823 115.27310328 47.99577713 116.09081745 C48.68968572 118.90004633 50.10671785 119.65898698 52.50358582 121.14663696 C52.17358582 122.79663696 51.84358582 124.44663696 51.50358582 126.14663696 C41.60358582 126.14663696 31.70358582 126.14663696 21.50358582 126.14663696 C21.17358582 124.49663696 20.84358582 122.84663696 20.50358582 121.14663696 C22.48358582 120.15663696 22.48358582 120.15663696 24.50358582 119.14663696 C24.83358582 83.17663696 25.16358582 47.20663696 25.50358582 10.14663696 C9.96720056 9.74344668 9.96720056 9.74344668 3.50358582 14.14663696 C1.69370528 16.88578945 1.69370528 16.88578945 0.31608582 20.02163696 C-0.17246887 21.05030884 -0.66102356 22.07898071 -1.16438293 23.13882446 C-2.01473198 25.05896747 -2.81490671 27.00265962 -3.54719543 28.97085571 C-4.49641418 31.14663696 -4.49641418 31.14663696 -6.49641418 32.08413696 C-7.15641418 32.10476196 -7.81641418 32.12538696 -8.49641418 32.14663696 C-10.49641418 30.14663696 -10.49641418 30.14663696 -10.57844543 27.67007446 C-8.21386949 0.04908595 -8.21386949 0.04908595 0 0 Z " fill="#312F65" transform="translate(1014.4964141845703,297.8533630371094)"/>
<path d="M0 0 C2.5 2.1875 2.5 2.1875 4 4 C4.66 2.02 5.32 0.04 6 -2 C9.3 -2 12.6 -2 16 -2 C15.36919642 7.11369948 13.56257106 15.93586235 11.72631836 24.86767578 C11.18917654 27.49180949 10.66749348 30.11871578 10.14648438 32.74609375 C5.26719795 56.90304469 5.26719795 56.90304469 -3 64 C-12.83532721 70.22777476 -25.29162969 70.66597477 -36.48828125 68.24609375 C-41.37832054 66.55873242 -44.46753729 64.83893208 -48 61 C-46.35 58.69 -44.7 56.38 -43 54 C-42.360625 54.268125 -41.72125 54.53625 -41.0625 54.8125 C-40.051875 55.204375 -39.04125 55.59625 -38 56 C-37.05253906 56.39638672 -37.05253906 56.39638672 -36.0859375 56.80078125 C-28.51783029 59.70418238 -20.09341612 60.75456509 -12.5 57.375 C-6.90911146 54.08078351 -4.73288076 49.06508267 -3 43 C-3.51949219 43.27714844 -4.03898438 43.55429687 -4.57421875 43.83984375 C-12.78148071 48.1027654 -20.6503047 49.50994278 -29.6875 46.8125 C-35.18605411 44.75893878 -38.76659741 42.08402506 -41.8125 36.9375 C-44.73742819 29.70215132 -44.60553648 22.01630303 -42.21484375 14.546875 C-39.00990609 7.747736 -33.47267728 2.70253356 -27 -1 C-17.93493255 -4.17277361 -8.67775474 -4.26275671 0 0 Z M-30.65234375 15.0625 C-33.78976699 19.57311429 -33.56708384 24.72365473 -33 30 C-31.20274949 34.11869909 -29.34581839 36.13418 -25.3125 37.9375 C-19.50944954 39.7637859 -14.36595926 38.86448512 -8.75 36.8125 C-4.00849089 33.68741445 -0.42046095 29.55271097 1 24 C1.56615454 19.31398242 1.44075581 15.95203256 -0.5625 11.625 C-4.33852029 7.55851661 -7.97148141 6.22129294 -13.4375 5.625 C-21.3672439 6.45970988 -25.54275338 8.91702456 -30.65234375 15.0625 Z " fill="#CF4D24" transform="translate(631,491)"/>
<path d="M0 0 C3.63 0 7.26 0 11 0 C10.19242459 4.45924011 9.37811136 8.91722328 8.5625 13.375 C8.33240234 14.64601563 8.10230469 15.91703125 7.86523438 17.2265625 C7.53168945 19.04414063 7.53168945 19.04414063 7.19140625 20.8984375 C6.88505249 22.57945557 6.88505249 22.57945557 6.57250977 24.29443359 C6 27 6 27 5 29 C17.54 29 30.08 29 43 29 C43.66 24.71 44.32 20.42 45 16 C45.4979542 13.24576527 46.01414526 10.49464468 46.5625 7.75 C46.81128906 6.48671875 47.06007813 5.2234375 47.31640625 3.921875 C48 1 48 1 49 0 C52.33327842 -0.1424478 55.66453893 -0.04222103 59 0 C58.41309893 8.10684856 56.9285507 15.93273394 55.27734375 23.8828125 C55.00929279 25.1912252 54.74168694 26.49972916 54.47450256 27.80831909 C53.77694936 31.21873344 53.07343768 34.62789078 52.36859131 38.0368042 C51.6476571 41.52899194 50.93248451 45.02235898 50.21679688 48.515625 C48.81676979 55.34490343 47.40989913 62.17275287 46 69 C42.37 69 38.74 69 35 69 C38.61702128 43.76595745 38.61702128 43.76595745 41 39 C28.46 39 15.92 39 3 39 C2.34 43.29 1.68 47.58 1 52 C0.50193258 54.73341305 -0.01429565 57.46369934 -0.5625 60.1875 C-0.81128906 61.43917969 -1.06007813 62.69085937 -1.31640625 63.98046875 C-2 67 -2 67 -3 69 C-6.63 69 -10.26 69 -14 69 C-11.23606989 53.69207938 -8.32926254 38.41627673 -5.29199219 23.16040039 C-4.93034603 21.34353572 -4.56967055 19.52647758 -4.20996094 17.70922852 C-3.70036533 15.13755379 -3.18677234 12.56671156 -2.671875 9.99609375 C-2.51789246 9.21705185 -2.36390991 8.43800995 -2.20526123 7.63536072 C-1.114808 2.229616 -1.114808 2.229616 0 0 Z " fill="#CE4D24" transform="translate(695,472)"/>
<path d="M0 0 C3.3 0 6.6 0 10 0 C9.28621973 8.13709505 7.67226118 16.01731928 6 24 C6.59425781 23.71125 7.18851563 23.4225 7.80078125 23.125 C16.17944378 19.37219314 23.53631546 18.52307177 32.3125 21.5625 C38.15209109 24.18985179 41.76181204 27.90026049 44.1328125 33.8359375 C46.32703296 41.84187701 45.82461772 50.18893027 42.31640625 57.71875 C37.90858915 65.35722236 32.36624439 70.09435824 24 73 C17.00201835 74.63143131 9.60666323 74.50555131 3.17578125 71.0078125 C1.74633668 70.05946429 0.36832317 69.03458582 -1 68 C-1.66 67.67 -2.32 67.34 -3 67 C-3.66 68.98 -4.32 70.96 -5 73 C-8.3 73 -11.6 73 -15 73 C-13.19532022 63.77661755 -11.38751708 54.55385449 -9.57569218 45.33187294 C-8.7345436 41.05000034 -7.89448394 36.76792002 -7.05688477 32.48535156 C-6.24894209 28.3546244 -5.43817584 24.22446075 -4.62542534 20.09467697 C-4.31541154 18.51677681 -4.00642619 16.93867425 -3.69847298 15.36037064 C-3.2679072 13.15458319 -2.83373338 10.94953529 -2.39868164 8.74462891 C-2.15219376 7.48776276 -1.90570587 6.23089661 -1.65174866 4.9359436 C-1 2 -1 2 0 0 Z M5.125 35.75 C0.9703577 40.96701658 -0.24741195 45.49998749 0.125 52.125 C0.68422692 56.45407429 1.6973904 58.98047122 5 62 C9.94928882 65.05659375 15.38506139 64.68474861 21 64 C26.55965214 62.04365759 30.25179591 58.3410531 33.08984375 53.2421875 C35.22056297 47.99311954 35.87869335 42.5027287 33.875 37.125 C31.40782921 33.01304869 29.51970322 30.62992581 24.734375 29.43359375 C16.5240892 28.23730978 10.86020521 29.66003983 5.125 35.75 Z " fill="#CF4D24" transform="translate(839,468)"/>
<path d="M0 0 C3 2.1875 3 2.1875 5 4 C4.979375 3.195625 4.95875 2.39125 4.9375 1.5625 C5 -1 5 -1 6 -2 C7.68608966 -2.07205511 9.37500659 -2.08386068 11.0625 -2.0625 C11.98160156 -2.05347656 12.90070313 -2.04445313 13.84765625 -2.03515625 C14.55792969 -2.02355469 15.26820313 -2.01195312 16 -2 C15.37949851 4.26534139 14.44256064 10.35633704 13.1875 16.5234375 C13.01371826 17.39142975 12.83993652 18.259422 12.66088867 19.15371704 C12.29626328 20.97084743 11.9297863 22.7876072 11.56152344 24.60400391 C10.99747411 27.38746471 10.43969514 30.17212868 9.8828125 32.95703125 C9.52640627 34.72924003 9.16964804 36.50137806 8.8125 38.2734375 C8.64580811 39.10467133 8.47911621 39.93590515 8.30737305 40.79232788 C7.66981489 43.9282577 7.01302422 46.96092734 6 50 C2.7 50 -0.6 50 -4 50 C-4 48.68 -4 47.36 -4 46 C-5.11375 46.639375 -6.2275 47.27875 -7.375 47.9375 C-14.35974262 51.39907439 -21.47332453 51.70844589 -28.96484375 49.7265625 C-34.98969786 47.57565489 -38.98460494 43.6084463 -42.0625 38.09765625 C-45.51463613 30.37350166 -43.84328544 21.51055491 -41.25390625 13.76953125 C-38.00256857 6.29867978 -31.48421602 0.99368641 -24 -2 C-15.85676994 -3.92723112 -7.48866889 -4.04930286 0 0 Z M-27.87109375 12.1640625 C-32.31294973 18.70434925 -33.88716159 24.08947579 -33 32 C-30.83605984 36.40802625 -28.61803133 39.23139226 -24 41 C-17.79077473 41.68358443 -12.22203765 41.76472482 -7 38 C-1.73010254 32.85708802 1.26801873 28.10467919 1.375 20.5625 C1.26117258 15.58757223 0.58281343 12.67468044 -3 9 C-11.34948339 4.27387733 -21.3283201 4.59684621 -27.87109375 12.1640625 Z " fill="#CE4D23" transform="translate(366,491)"/>
<path d="M0 0 C4.4345167 3.91729774 6.79216124 7.4804031 9 13 C9 17.62 9 22.24 9 27 C-5.19 27 -19.38 27 -34 27 C-31.15290039 36.32081389 -31.15290039 36.32081389 -27.5625 39.125 C-21.57022253 40.59678745 -14.57809367 41.48571363 -8.7421875 39.0625 C-7.14534274 38.06706431 -5.57079408 37.03605567 -4 36 C-1.6875 36 -1.6875 36 0 37 C1.56881519 39.16645907 2.08436905 40.33413351 1.74609375 43.00390625 C1 45 1 45 -2.25 47.125 C-11.2320813 51.17416724 -21.63861443 52.31002262 -31 49 C-36.89633973 45.87315317 -40.22309795 41.99810843 -43 36 C-45.69691702 26.94994287 -43.64548538 17.99702795 -39.3125 9.8125 C-29.69837814 -1.88035091 -14.31705278 -8.14265525 0 0 Z M-29.3828125 12.59765625 C-30.88643596 14.73742809 -32 16.33406946 -32 19 C-21.44 19 -10.88 19 0 19 C-2.03151728 11.75262886 -2.03151728 11.75262886 -7 7 C-15.53412729 4.1552909 -23.4110206 5.69804358 -29.3828125 12.59765625 Z " fill="#CF4D23" transform="translate(307,491)"/>
<path d="M0 0 C4.12506306 4.12506306 5.86369223 7.8667834 6.234375 13.66796875 C6.1729077 20.91086604 4.44254829 27.99417476 3 35.0625 C2.7101525 36.51481751 2.42108357 37.96729063 2.1328125 39.41992188 C1.43084312 42.94845401 0.71835738 46.47476306 0 50 C-3.63 50 -7.26 50 -11 50 C-10.77280273 48.80624756 -10.77280273 48.80624756 -10.54101562 47.58837891 C-9.85131466 43.93561651 -9.17557352 40.2804005 -8.5 36.625 C-8.26152344 35.37332031 -8.02304687 34.12164063 -7.77734375 32.83203125 C-5.02406731 20.88941092 -5.02406731 20.88941092 -7.5 9.4375 C-11.77746257 6.97795903 -15.62113506 6.55860141 -20.37890625 7.44140625 C-25.34636177 8.87353923 -28.33189812 10.38213136 -31 15 C-33.89577882 21.79091608 -35.27092391 28.63654385 -36.625 35.875 C-37.05219712 38.12287055 -37.4817621 40.37029281 -37.9140625 42.6171875 C-38.0992041 43.60315918 -38.2843457 44.58913086 -38.47509766 45.60498047 C-39 48 -39 48 -40 50 C-43.3 50 -46.6 50 -50 50 C-49.41421671 43.34041324 -48.52319741 36.89086227 -47.1875 30.34375 C-46.92682739 29.04032654 -46.92682739 29.04032654 -46.66088867 27.71057129 C-46.2967367 25.8951257 -45.93025982 24.080145 -45.56152344 22.265625 C-44.99600605 19.48032894 -44.43888346 16.69344576 -43.8828125 13.90625 C-43.52653038 12.13531828 -43.16977678 10.36448132 -42.8125 8.59375 C-42.64580811 7.76049194 -42.47911621 6.92723389 -42.30737305 6.06872559 C-41.11575471 0.23150942 -41.11575471 0.23150942 -40 -2 C-36.7 -2 -33.4 -2 -30 -2 C-30 -0.68 -30 0.64 -30 2 C-29.484375 1.54625 -28.96875 1.0925 -28.4375 0.625 C-20.05254573 -4.96496951 -8.72777566 -4.44044726 0 0 Z " fill="#CF4D23" transform="translate(478,491)"/>
<path d="M0 0 C4.21362005 4.21362005 6.09029393 8.2811519 6.234375 14.19921875 C6.1788233 21.49037877 4.50913661 28.52665609 3 35.625 C2.71003471 37.02455284 2.42096552 38.42429166 2.1328125 39.82421875 C1.43218135 43.21834979 0.71949808 46.60981181 0 50 C-3.63 50 -7.26 50 -11 50 C-10.77280273 48.85954224 -10.77280273 48.85954224 -10.54101562 47.69604492 C-9.84994083 44.19521949 -9.17489448 40.69147916 -8.5 37.1875 C-8.26152344 35.99189453 -8.02304687 34.79628906 -7.77734375 33.56445312 C-4.95739967 21.2273986 -4.95739967 21.2273986 -7.5 9.375 C-12.68311917 6.52428446 -17.21509931 6.52927081 -22.75 8.125 C-26.74666387 9.65636777 -28.8124917 11.21392794 -31 15 C-33.89577882 21.79091608 -35.27092391 28.63654385 -36.625 35.875 C-37.05219712 38.12287055 -37.4817621 40.37029281 -37.9140625 42.6171875 C-38.0992041 43.60315918 -38.2843457 44.58913086 -38.47509766 45.60498047 C-39 48 -39 48 -40 50 C-43.3 50 -46.6 50 -50 50 C-49.36927566 43.65731822 -48.42195821 37.47374172 -47.1875 31.22265625 C-47.01371826 30.33009628 -46.83993652 29.43753632 -46.66088867 28.51792908 C-46.29620039 26.64954644 -45.9297236 24.78151208 -45.56152344 22.91381836 C-44.99695056 20.04701548 -44.43950618 17.17888905 -43.8828125 14.31054688 C-43.526462 12.48950103 -43.16970583 10.66853451 -42.8125 8.84765625 C-42.64580811 7.98938736 -42.47911621 7.13111847 -42.30737305 6.24684143 C-41.11525991 0.23051982 -41.11525991 0.23051982 -40 -2 C-36.7 -2 -33.4 -2 -30 -2 C-30 -0.68 -30 0.64 -30 2 C-29.484375 1.54625 -28.96875 1.0925 -28.4375 0.625 C-20.05254573 -4.96496951 -8.72777566 -4.44044726 0 0 Z " fill="#CF4D24" transform="translate(571,491)"/>
<path d="M0 0 C3.63 0 7.26 0 11 0 C10.84853516 0.76030518 10.69707031 1.52061035 10.54101562 2.30395508 C9.84994083 5.80478051 9.17489448 9.30852084 8.5 12.8125 C8.26152344 14.00810547 8.02304687 15.20371094 7.77734375 16.43554688 C5.30793656 28.75452598 5.30793656 28.75452598 7 41 C12.40955438 43.06765189 19.01920104 42.69694778 24.375 40.8125 C33.76407274 34.32956882 34.68893132 22.40130523 36.6875 11.9375 C36.91244141 10.78572266 37.13738281 9.63394531 37.36914062 8.44726562 C37.91807037 5.63254077 38.45977897 2.81640926 39 0 C42.63 0 46.26 0 50 0 C46.97448858 17.40634653 43.71713827 34.72717027 40 52 C36.7 52 33.4 52 30 52 C30 50.68 30 49.36 30 48 C29.45472656 48.27714844 28.90945313 48.55429687 28.34765625 48.83984375 C20.5993184 52.56169492 13.59706989 54.06112244 5.14453125 51.85546875 C0.27590421 49.91333884 -3.06580616 46.82777056 -5.4375 42.1875 C-7.11896715 32.65918618 -4.9658131 23.7421288 -3 14.4375 C-2.71012766 13.03337007 -2.42105865 11.62907404 -2.1328125 10.22460938 C-1.43112496 6.81444185 -0.71859758 3.40664945 0 0 Z " fill="#CF4D24" transform="translate(768,489)"/>
<path d="M0 0 C3.3 0 6.6 0 10 0 C8.5557288 10.38391506 6.55989915 20.63268725 4.48608398 30.90576172 C3.93167147 33.65389105 3.38252962 36.40303789 2.83398438 39.15234375 C2.48207734 40.90631152 2.12987484 42.66022005 1.77734375 44.4140625 C1.61378891 45.23274811 1.45023407 46.05143372 1.28172302 46.89492798 C0.6533561 49.99777669 0.00221039 52.99336883 -1 56 C10.22 56 21.44 56 33 56 C32.67 58.97 32.34 61.94 32 65 C17.15 65 2.3 65 -13 65 C-11.70164536 56.56069487 -10.33404591 48.22204265 -8.65234375 39.86328125 C-8.43558487 38.77661667 -8.21882599 37.68995209 -7.99549866 36.57035828 C-7.54227891 34.30223737 -7.08763195 32.03440121 -6.6315918 29.7668457 C-5.93168692 26.28356957 -5.23803972 22.7990854 -4.54492188 19.31445312 C-4.10193302 17.1014883 -3.65858685 14.88859496 -3.21484375 12.67578125 C-3.00754135 11.63319656 -2.80023895 10.59061188 -2.58665466 9.51643372 C-2.39297806 8.55750717 -2.19930145 7.59858063 -1.99975586 6.6105957 C-1.745662 5.34370659 -1.745662 5.34370659 -1.48643494 4.05122375 C-1 2 -1 2 0 0 Z " fill="#CF4D24" transform="translate(228,477)"/>
<path d="M0 0 C-0.66 3.3 -1.32 6.6 -2 10 C-2.73605469 10.10957031 -3.47210938 10.21914063 -4.23046875 10.33203125 C-11.65988399 11.34568387 -11.65988399 11.34568387 -18 15 C-21.05450893 19.78482811 -22.71291463 23.86177743 -23.921875 29.46484375 C-24.07158752 30.14301651 -24.22130005 30.82118927 -24.37554932 31.51991272 C-24.84470084 33.65688958 -25.29759854 35.7969217 -25.75 37.9375 C-26.06793551 39.39932274 -26.38693659 40.86091416 -26.70703125 42.32226562 C-27.48367353 45.8789237 -28.24579423 49.43850807 -29 53 C-32.3 53 -35.6 53 -39 53 C-38.41421671 46.34041324 -37.52319741 39.89086227 -36.1875 33.34375 C-35.92682739 32.04032654 -35.92682739 32.04032654 -35.66088867 30.71057129 C-35.2967367 28.8951257 -34.93025982 27.080145 -34.56152344 25.265625 C-33.99600605 22.48032894 -33.43888346 19.69344576 -32.8828125 16.90625 C-32.52653038 15.13531828 -32.16977678 13.36448132 -31.8125 11.59375 C-31.64580811 10.76049194 -31.47911621 9.92723389 -31.30737305 9.06872559 C-30.11575471 3.23150942 -30.11575471 3.23150942 -29 1 C-25.7 1 -22.4 1 -19 1 C-19 2.32 -19 3.64 -19 5 C-17.948125 4.360625 -16.89625 3.72125 -15.8125 3.0625 C-10.51082202 0.05573673 -6.0726645 -0.11907185 0 0 Z " fill="#D04E24" transform="translate(428,488)"/>
<path d="M0 0 C3.3 0 6.6 0 10 0 C9.36927566 6.34268178 8.42195821 12.52625828 7.1875 18.77734375 C7.01371826 19.66990372 6.83993652 20.56246368 6.66088867 21.48207092 C6.29620039 23.35045356 5.9297236 25.21848792 5.56152344 27.08618164 C4.99695056 29.95298452 4.43950618 32.82111095 3.8828125 35.68945312 C3.526462 37.51049897 3.16970583 39.33146549 2.8125 41.15234375 C2.64580811 42.01061264 2.47911621 42.86888153 2.30737305 43.75315857 C1.11525991 49.76948018 1.11525991 49.76948018 0 52 C-3.3 52 -6.6 52 -10 52 C-9.41421671 45.34041324 -8.52319741 38.89086227 -7.1875 32.34375 C-6.92682739 31.04032654 -6.92682739 31.04032654 -6.66088867 29.71057129 C-6.2967367 27.8951257 -5.93025982 26.080145 -5.56152344 24.265625 C-4.99600605 21.48032894 -4.43888346 18.69344576 -3.8828125 15.90625 C-3.52653038 14.13531828 -3.16977678 12.36448132 -2.8125 10.59375 C-2.64580811 9.76049194 -2.47911621 8.92723389 -2.30737305 8.06872559 C-1.11575471 2.23150942 -1.11575471 2.23150942 0 0 Z " fill="#CE4D23" transform="translate(504,489)"/>
<path d="M0 0 C3.71217409 3.38507679 5.25058827 6.55879986 5.8359375 11.5546875 C5.92266974 18.23307009 5.63684991 22.3531409 1.5 27.6875 C-3.06999507 32.25749507 -6.81106822 33.84474657 -13.25 34 C-19.70713448 33.92989842 -23.33089157 32.85660843 -27.99609375 28.19140625 C-32.84567946 22.68238679 -32.84792119 17.92105511 -32.77734375 10.85546875 C-32.28428193 5.2234527 -29.59192609 2.77942609 -25.75 -1.0625 C-17.3912963 -6.84929487 -7.93543681 -6.58411242 0 0 Z M-26.875 4.0625 C-29.89154749 8.93538441 -31.04571012 12.88987435 -30.10546875 18.6640625 C-28.71724551 23.30341499 -25.87237812 26.60404359 -22.125 29.5625 C-16.18451301 32.108423 -11.49396287 32.01848556 -5.5 29.6875 C-0.30072623 26.26070592 1.98570525 22.92835568 3.375 16.875 C3.77959795 12.31251252 2.83413813 8.62267151 0.5 4.6875 C-3.29075544 0.39710344 -7.67671658 -1.93606221 -13.3125 -2.6875 C-18.79784803 -2.04216494 -22.98169561 0.16919561 -26.875 4.0625 Z " fill="#2E2C60" transform="translate(1142.5,280.3125)"/>
<path d="M0 0 C4.62 0 9.24 0 14 0 C14.99 1.98 15.98 3.96 17 6 C18.50559539 4.03617993 19.89131683 2.21736634 21 0 C21.99 0 22.98 0 24 0 C24 3.96 24 7.92 24 12 C23.01 12 22.02 12 21 12 C20.67 11.34 20.34 10.68 20 10 C19.67 10.66 19.34 11.32 19 12 C18.01 12 17.02 12 16 12 C15.67 11.34 15.34 10.68 15 10 C14.67 10.66 14.34 11.32 14 12 C13.01 12 12.02 12 11 12 C11 8.7 11 5.4 11 2 C9.68 2 8.36 2 7 2 C7 5.3 7 8.6 7 12 C6.01 12 5.02 12 4 12 C4 8.7 4 5.4 4 2 C2.68 2 1.36 2 0 2 C0 1.34 0 0.68 0 0 Z " fill="#302E64" transform="translate(1117,289)"/>
<path d="M0 0 C1.9375 1.125 1.9375 1.125 3 3 C3.5 5.9375 3.5 5.9375 3 9 C0.875 11.4375 0.875 11.4375 -2 13 C-5.72706873 12.85384044 -7.34211707 12.65788293 -10 10 C-10.54587156 3.99541284 -10.54587156 3.99541284 -8.9375 1.0625 C-5.88023824 -0.6140629 -3.4093712 -0.36528977 0 0 Z " fill="#CF4D23" transform="translate(516,467)"/>
</svg>
